# xmcd
#
# Track frame offsets: 
#        150
#        13367
#        29803
#        44259
#        55194
#        71732
#        85884
#        102055
#        115344
#        134945
#        153177
#        167867
#
# Disc length: 2378 seconds
#
# Revision: 0
# Processed by: cddbd v1.5.2PL0 Copyright (c) Steve Scherf et al.
# Submitted via: ExactAudioCopy v0.95a5
#
DISCID=ac09480c
DTITLE=Halavatun Papat - Turpo
DYEAR=2009
DGENRE=Humour
TTITLE0=Tarkkoo Hommoo
TTITLE1=Pappatunturilla Aju On Parasta
TTITLE2=Naessiinnii
TTITLE3=Pikkuse Rapulassa
TTITLE4=Pirraattisavolaenen
TTITLE5=Köyhän Talon Rikas Renki
TTITLE6=Milleeniumi
TTITLE7=Pilleisiin
TTITLE8=Anna Onnin Tulla Ja Tunnin Olla
TTITLE9=Siästellään, Siästellään
TTITLE10=Rusaselle Tankkoomaan
TTITLE11=Vökälehtijä
EXTD=
EXTT0=
EXTT1=
EXTT2=
EXTT3=
EXTT4=
EXTT5=
EXTT6=
EXTT7=
EXTT8=
EXTT9=
EXTT10=
EXTT11=
PLAYORDER=
